<?xml version="1.0" standalone="no"?>
<!DOCTYPE svg PUBLIC "-//W3C//DTD SVG 20010904//EN"
 "http://www.w3.org/TR/2001/REC-SVG-20010904/DTD/svg10.dtd">
<svg version="1.0" xmlns="http://www.w3.org/2000/svg"
 width="390.000000pt" height="390.000000pt" viewBox="0 0 390.000000 390.000000"
 preserveAspectRatio="xMidYMid meet">

<g transform="translate(0.000000,390.000000) scale(0.100000,-0.100000)"
fill="#000000" stroke="none">
<path d="M500 3050 l0 -350 350 0 350 0 0 350 0 350 -350 0 -350 0 0 -350z
m600 0 l0 -250 -250 0 -250 0 0 250 0 250 250 0 250 0 0 -250z"/>
<path d="M700 3050 l0 -150 150 0 150 0 0 150 0 150 -150 0 -150 0 0 -150z"/>
<path d="M1300 3250 l0 -150 50 0 50 0 0 -50 0 -50 -50 0 -50 0 0 -50 0 -50
50 0 50 0 0 -50 0 -50 -50 0 -50 0 0 -50 0 -50 50 0 50 0 0 -50 0 -50 -300 0
-300 0 0 -50 0 -50 -100 0 -100 0 0 50 0 50 -50 0 -50 0 0 -50 0 -50 50 0 50
0 0 -50 0 -50 -50 0 -50 0 0 -50 0 -50 50 0 50 0 0 -50 0 -50 50 0 50 0 0 -50
0 -50 -100 0 -100 0 0 -50 0 -50 200 0 200 0 0 -100 0 -100 -50 0 -50 0 0 50
0 50 -100 0 -100 0 0 -100 0 -100 -50 0 -50 0 0 -200 0 -200 200 0 200 0 0 50
0 50 50 0 50 0 0 -50 0 -50 150 0 150 0 0 -250 0 -250 50 0 50 0 0 50 0 50
150 0 150 0 0 100 0 100 50 0 50 0 0 50 0 50 -50 0 -50 0 0 50 0 50 100 0 100
0 0 -150 0 -150 -50 0 -50 0 0 -150 0 -150 -50 0 -50 0 0 50 0 50 -100 0 -100
0 0 -50 0 -50 -50 0 -50 0 0 -50 0 -50 -50 0 -50 0 0 -50 0 -50 50 0 50 0 0
50 0 50 50 0 50 0 0 -50 0 -50 50 0 50 0 0 50 0 50 50 0 50 0 0 -50 0 -50 50
0 50 0 0 50 0 50 50 0 50 0 0 -50 0 -50 100 0 100 0 0 50 0 50 50 0 50 0 0 50
0 50 -50 0 -50 0 0 50 0 50 50 0 50 0 0 50 0 50 -50 0 -50 0 0 50 0 50 -50 0
-50 0 0 50 0 50 50 0 50 0 0 100 0 100 100 0 100 0 0 50 0 50 -100 0 -100 0 0
-50 0 -50 -50 0 -50 0 0 100 0 100 50 0 50 0 0 100 0 100 50 0 50 0 0 100 0
100 -50 0 -50 0 0 50 0 50 50 0 50 0 0 50 0 50 -50 0 -50 0 0 50 0 50 -50 0
-50 0 0 -50 0 -50 -50 0 -50 0 0 150 0 150 50 0 50 0 0 -50 0 -50 50 0 50 0 0
100 0 100 50 0 50 0 0 -150 0 -150 50 0 50 0 0 100 0 100 100 0 100 0 0 -50 0
-50 -50 0 -50 0 0 -50 0 -50 50 0 50 0 0 -50 0 -50 100 0 100 0 0 -50 0 -50
50 0 50 0 0 -50 0 -50 50 0 50 0 0 -50 0 -50 50 0 50 0 0 -50 0 -50 -50 0 -50
0 0 -50 0 -50 50 0 50 0 0 -100 0 -100 -50 0 -50 0 0 50 0 50 -50 0 -50 0 0
-50 0 -50 -50 0 -50 0 0 100 0 100 -50 0 -50 0 0 200 0 200 -100 0 -100 0 0
50 0 50 -50 0 -50 0 0 -100 0 -100 100 0 100 0 0 -100 0 -100 -50 0 -50 0 0
50 0 50 -50 0 -50 0 0 -100 0 -100 50 0 50 0 0 -50 0 -50 100 0 100 0 0 -50 0
-50 -100 0 -100 0 0 -50 0 -50 50 0 50 0 0 -50 0 -50 -100 0 -100 0 0 -50 0
-50 -50 0 -50 0 0 -50 0 -50 50 0 50 0 0 50 0 50 50 0 50 0 0 -100 0 -100 100
0 100 0 0 -50 0 -50 -50 0 -50 0 0 -50 0 -50 50 0 50 0 0 -50 0 -50 -50 0 -50
0 0 -50 0 -50 100 0 100 0 0 50 0 50 100 0 100 0 0 -50 0 -50 50 0 50 0 0 50
0 50 100 0 100 0 0 50 0 50 50 0 50 0 0 -50 0 -50 50 0 50 0 0 200 0 200 -50
0 -50 0 0 -100 0 -100 -100 0 -100 0 0 -50 0 -50 -50 0 -50 0 0 50 0 50 -100
0 -100 0 0 -50 0 -50 -100 0 -100 0 0 50 0 50 50 0 50 0 0 50 0 50 200 0 200
0 0 50 0 50 -50 0 -50 0 0 50 0 50 50 0 50 0 0 100 0 100 100 0 100 0 0 50 0
50 -50 0 -50 0 0 50 0 50 -50 0 -50 0 0 50 0 50 100 0 100 0 0 -50 0 -50 50 0
50 0 0 50 0 50 -50 0 -50 0 0 50 0 50 -100 0 -100 0 0 50 0 50 50 0 50 0 0
100 0 100 50 0 50 0 0 -100 0 -100 50 0 50 0 0 250 0 250 -50 0 -50 0 0 -100
0 -100 -200 0 -200 0 0 50 0 50 100 0 100 0 0 50 0 50 50 0 50 0 0 50 0 50 50
0 50 0 0 50 0 50 50 0 50 0 0 50 0 50 -150 0 -150 0 0 -150 0 -150 -200 0
-200 0 0 150 0 150 -100 0 -100 0 0 50 0 50 50 0 50 0 0 50 0 50 -50 0 -50 0
0 -50 0 -50 -50 0 -50 0 0 50 0 50 -50 0 -50 0 0 -50 0 -50 50 0 50 0 0 -100
0 -100 -50 0 -50 0 0 50 0 50 -100 0 -100 0 0 -50 0 -50 -100 0 -100 0 0 100
0 100 50 0 50 0 0 300 0 300 -50 0 -50 0 0 50 0 50 -100 0 -100 0 0 -50 0 -50
-50 0 -50 0 0 50 0 50 -150 0 -150 0 0 -150z m600 0 l0 -50 -100 0 -100 0 0
50 0 50 100 0 100 0 0 -50z m-300 -100 l0 -50 50 0 50 0 0 -50 0 -50 50 0 50
0 0 -50 0 -50 -50 0 -50 0 0 -100 0 -100 -50 0 -50 0 0 200 0 200 -100 0 -100
0 0 50 0 50 100 0 100 0 0 -50z m-100 -400 l0 -50 -50 0 -50 0 0 50 0 50 50 0
50 0 0 -50z m400 0 l0 -50 -50 0 -50 0 0 50 0 50 50 0 50 0 0 -50z m-100 -450
l0 -300 -50 0 -50 0 0 -50 0 -50 -100 0 -100 0 0 50 0 50 100 0 100 0 0 50 0
50 -50 0 -50 0 0 50 0 50 -50 0 -50 0 0 -50 0 -50 -50 0 -50 0 0 -150 0 -150
50 0 50 0 0 -50 0 -50 150 0 150 0 0 100 0 100 50 0 50 0 0 50 0 50 50 0 50 0
0 -100 0 -100 -50 0 -50 0 0 -50 0 -50 -50 0 -50 0 0 -50 0 -50 100 0 100 0 0
-50 0 -50 -50 0 -50 0 0 -50 0 -50 -50 0 -50 0 0 100 0 100 -50 0 -50 0 0
-150 0 -150 -50 0 -50 0 0 -50 0 -50 50 0 50 0 0 -50 0 -50 -150 0 -150 0 0
50 0 50 50 0 50 0 0 50 0 50 50 0 50 0 0 150 0 150 -50 0 -50 0 0 -50 0 -50
-100 0 -100 0 0 -50 0 -50 50 0 50 0 0 -50 0 -50 -50 0 -50 0 0 50 0 50 -100
0 -100 0 0 50 0 50 -100 0 -100 0 0 -50 0 -50 -50 0 -50 0 0 100 0 100 -50 0
-50 0 0 100 0 100 50 0 50 0 0 -50 0 -50 50 0 50 0 0 -50 0 -50 100 0 100 0 0
50 0 50 50 0 50 0 0 50 0 50 -50 0 -50 0 0 50 0 50 50 0 50 0 0 -50 0 -50 50
0 50 0 0 150 0 150 -50 0 -50 0 0 -50 0 -50 -50 0 -50 0 0 50 0 50 50 0 50 0
0 50 0 50 -100 0 -100 0 0 -100 0 -100 -50 0 -50 0 0 150 0 150 -50 0 -50 0 0
-50 0 -50 -50 0 -50 0 0 100 0 100 100 0 100 0 0 50 0 50 50 0 50 0 0 -50 0
-50 50 0 50 0 0 50 0 50 150 0 150 0 0 50 0 50 200 0 200 0 0 -300z m800 150
l0 -50 -50 0 -50 0 0 50 0 50 50 0 50 0 0 -50z m100 -200 l0 -50 -50 0 -50 0
0 50 0 50 50 0 50 0 0 -50z m400 -350 l0 -100 -50 0 -50 0 0 50 0 50 -50 0
-50 0 0 50 0 50 100 0 100 0 0 -100z m0 -250 l0 -50 -50 0 -50 0 0 50 0 50 50
0 50 0 0 -50z m-200 -500 l0 -150 -150 0 -150 0 0 150 0 150 150 0 150 0 0
-150z m-900 -350 l0 -100 50 0 50 0 0 -50 0 -50 -100 0 -100 0 0 150 0 150 50
0 50 0 0 -100z m-400 -150 l0 -50 -50 0 -50 0 0 50 0 50 50 0 50 0 0 -50z
m1400 0 l0 -50 -50 0 -50 0 0 50 0 50 50 0 50 0 0 -50z"/>
<path d="M1400 2400 l0 -100 -100 0 -100 0 0 50 0 50 -50 0 -50 0 0 -50 0 -50
50 0 50 0 0 -50 0 -50 150 0 150 0 0 50 0 50 50 0 50 0 0 50 0 50 50 0 50 0 0
50 0 50 -150 0 -150 0 0 -100z"/>
<path d="M900 2350 l0 -50 50 0 50 0 0 50 0 50 -50 0 -50 0 0 -50z"/>
<path d="M1300 1750 l0 -50 -50 0 -50 0 0 -50 0 -50 -50 0 -50 0 0 -50 0 -50
50 0 50 0 0 50 0 50 150 0 150 0 0 50 0 50 -50 0 -50 0 0 50 0 50 -50 0 -50 0
0 -50z"/>
<path d="M2700 1150 l0 -50 50 0 50 0 0 50 0 50 -50 0 -50 0 0 -50z"/>
<path d="M2200 3350 l0 -50 -50 0 -50 0 0 -200 0 -200 50 0 50 0 0 50 0 50 50
0 50 0 0 -50 0 -50 100 0 100 0 0 50 0 50 50 0 50 0 0 50 0 50 -50 0 -50 0 0
100 0 100 -100 0 -100 0 0 50 0 50 -50 0 -50 0 0 -50z m100 -150 l0 -100 100
0 100 0 0 -50 0 -50 -100 0 -100 0 0 50 0 50 -50 0 -50 0 0 100 0 100 50 0 50
0 0 -100z"/>
<path d="M2700 3050 l0 -350 350 0 350 0 0 350 0 350 -350 0 -350 0 0 -350z
m600 0 l0 -250 -250 0 -250 0 0 250 0 250 250 0 250 0 0 -250z"/>
<path d="M2900 3050 l0 -150 150 0 150 0 0 150 0 150 -150 0 -150 0 0 -150z"/>
<path d="M2100 2750 l0 -50 50 0 50 0 0 50 0 50 -50 0 -50 0 0 -50z"/>
<path d="M2900 2550 l0 -50 -50 0 -50 0 0 -50 0 -50 100 0 100 0 0 100 0 100
-50 0 -50 0 0 -50z"/>
<path d="M500 850 l0 -350 350 0 350 0 0 350 0 350 -350 0 -350 0 0 -350z
m600 0 l0 -250 -250 0 -250 0 0 250 0 250 250 0 250 0 0 -250z"/>
<path d="M700 850 l0 -150 150 0 150 0 0 150 0 150 -150 0 -150 0 0 -150z"/>
<path d="M2300 650 l0 -50 50 0 50 0 0 50 0 50 -50 0 -50 0 0 -50z"/>
</g>
</svg>
